<svg width="575" height="191" viewBox="0 0 575 191" fill="none" xmlns="http://www.w3.org/2000/svg">
    <path d="M240 96.5086V0H212V185.816H240V143.264L295.395 185.816C301.406 190.779 310.294 190.076 315.202 183.43C320.11 176.784 318.059 168.256 313.314 164.43L263.1 126.208C259.331 123.035 258.804 117.245 263.1 113.61L313.314 74.8374C318.494 70.1237 320.825 62.3063 315.576 55.4148C310.326 48.5233 301.247 48.5233 295.939 52.8863L240 96.5086Z" fill="black"/>
    <path d="M2.70802 1L2.70801 131.817H30.708L30.708 1L2.70802 1Z" fill="black"/>
    <path d="M0 173.33C-8.06737e-07 182.558 7.48001 190.038 16.708 190.038C25.936 190.038 33.415 182.558 33.415 173.33C33.415 164.102 25.936 156.622 16.708 156.622C7.48001 156.622 8.06737e-07 164.102 0 173.33Z" fill="black"/>
    <path d="M572.292 190.038L572.292 59.2207L544.292 59.2207L544.292 190.038L572.292 190.038Z" fill="black"/>
    <path d="M575 17.708C575 8.47998 567.52 1 558.292 0.999999C549.064 0.999997 541.585 8.47997 541.585 17.708C541.585 26.936 549.064 34.416 558.292 34.416C567.52 34.416 575 26.936 575 17.708Z" fill="black"/>
    <path fill-rule="evenodd" clip-rule="evenodd" d="M122.5 95C107.964 95 96 106.902 96 121.808V186H68V121.808C68 91.6385 92.3007 67 122.5 67C152.699 67 177 91.6385 177 121.808V186H149V121.808C149 106.902 137.036 95 122.5 95Z" fill="black"/>
    <path fill-rule="evenodd" clip-rule="evenodd" d="M452.5 162C467.036 162 479 150.098 479 135.192L479 61L507 61L507 135.192C507 165.362 482.699 190 452.5 190C422.301 190 398 165.362 398 135.192L398 61L426 61L426 135.192C426 150.098 437.964 162 452.5 162Z" fill="black"/>
</svg>
