<svg width="26" height="26" viewBox="0 0 26 26" fill="none" xmlns="http://www.w3.org/2000/svg">
    <path d="M6.94327 4.3093C5.20229 6.05028 4.12621 8.45616 4.12621 11.1158C4.12621 13.7753 5.20229 16.1812 6.94327 17.9222" stroke-linecap="round"/>
    <path d="M13.7497 13.3029C12.5424 13.3029 11.5626 12.3231 11.5626 11.1158C11.5626 9.90844 12.5424 8.92859 13.7497 8.92859C14.957 8.92859 15.9369 9.90844 15.9369 11.1158C15.9369 12.3231 14.957 13.3029 13.7497 13.3029Z" stroke="black"/>
    <path d="M19.8738 11.1158C19.8738 7.67754 17.188 4.9917 13.7497 4.9917C10.3115 4.9917 7.62567 7.67754 7.62567 11.1158C7.62567 12.2181 7.95812 13.4342 8.56178 14.5277C9.3579 15.9713 10.294 16.6974 11.0551 17.2836C11.7638 17.826 12.2712 18.2197 12.5512 19.077C13.0761 20.6693 13.7497 21.5617 14.9395 22.1828C15.3857 22.384 15.8757 22.489 16.3743 22.489C18.3078 22.489 19.8738 20.923 19.8738 18.9896" stroke-linecap="round"/>
</svg>