<svg width="26" height="26" viewBox="0 0 26 26" xmlns="http://www.w3.org/2000/svg">
    <circle cx="13" cy="13" r="9.5" />
    <path d="M3.5 13H22.5" />
    <path d="M13 3.5V22.5" />
    <path d="M13.0008 3.5C11.3341 4.83333 8 8 8 13C8 18 11.3341 21.1667 13.0008 22.5" />
    <path d="M13 22.5C14.6667 21.1667 18 18 18 13C18 8 14.6667 4.83333 13 3.5" />
    <path d="M6 6.5C7.16667 7.33333 9.5 9 13 9C16.5 9 18.8333 7.33333 20 6.5" />
    <path d="M20 19.5C18.8333 18.6667 16.5 17 13 17C9.5 17 7.16667 18.6667 6 19.5" />
</svg>
