<svg xmlns="http://www.w3.org/2000/svg" width="70" height="48" viewBox="0 0 70 48">
  <g id="レイヤー_2" data-name="レイヤー 2">
    <g id="visa">
      <g id="visa-2" data-name="visa">
        <rect width="70" height="48" rx="4" fill="#fcfcfc"/>
        <g>
          <polygon points="25.728 32.338 28.563 15.704 33.097 15.704 30.26 32.338 25.728 32.338" fill="#005098"/>
          <path d="M46.7,16.114a11.707,11.707,0,0,0-4.063-.7c-4.48,0-7.636,2.256-7.663,5.489-.025,2.391,2.253,3.724,3.973,4.52,1.764.815,2.358,1.335,2.349,2.063-.011,1.115-1.409,1.624-2.712,1.624a9.505,9.505,0,0,1-4.268-.873l-.584-.264L33.1,31.7a14.339,14.339,0,0,0,5.05.888c4.766,0,7.86-2.23,7.9-5.683.017-1.892-1.191-3.332-3.806-4.519-1.585-.77-2.556-1.283-2.546-2.063,0-.691.822-1.43,2.6-1.43a8.362,8.362,0,0,1,3.393.637l.407.192.614-3.605" fill="#005098"/>
          <path d="M58.33,15.72h-3.5A2.255,2.255,0,0,0,52.453,17.1L45.719,32.343H50.48s.779-2.049.955-2.5l5.806.007c.136.582.552,2.492.552,2.492H62L58.33,15.72M52.74,26.441c.375-.958,1.806-4.649,1.806-4.649-.027.044.372-.963.6-1.588l.307,1.434s.868,3.971,1.049,4.8Z" fill="#005098"/>
          <path d="M21.926,15.716,17.487,27.059l-.473-2.3a12.981,12.981,0,0,0-6.28-6.977l4.059,14.547,4.8-.006,7.138-16.6h-4.8" fill="#005098"/>
          <path d="M13.369,15.706H6.058L6,16.052c5.688,1.377,9.451,4.7,11.014,8.7l-1.59-7.644a1.9,1.9,0,0,0-2.055-1.4" fill="#f6a500"/>
        </g>
        <path d="M70,10H0V4A4,4,0,0,1,4,0H66a4,4,0,0,1,4,4Z" fill="#0a5296"/>
        <path d="M0,38H70v6a4,4,0,0,1-4,4H4a4,4,0,0,1-4-4Z" fill="#f4a428"/>
      </g>
    </g>
  </g>
</svg>
