<svg xmlns="http://www.w3.org/2000/svg" width="70" height="48" viewBox="0 0 70 48">
  <g id="レイヤー_2" data-name="レイヤー 2">
    <g id="amex">
      <g id="master">
        <rect width="70" height="48" rx="4" fill="#00adef"/>
        <g>
          <path d="M30.12,26.086,26.427,17.81h-4.72v11.9l-5.336-11.9H12.335L7,30.19h3.215l1.094-2.8H17.4l1.163,2.8h6.156V20.956l4.036,9.234h2.805l4.1-9.029V30.19h3.01V17.81H33.814L30.12,26.086ZM14.388,24.718H12.541l1.847-4.309v.137l1.846,4.172Z" fill="#fff" fill-rule="evenodd"/>
          <path d="M57.62,23.8l2.189-2.326L63,17.844H59.194l-3.421,3.762-3.42-3.762H40.383V30.088H52.011l3.626-4.036,3.557,4.1H63l-3.191-3.762Zm-7.251,3.762H43.461V25.094h6.7V22.769h-6.7V20.511h6.908L53.79,23.8Z" fill="#fff"/>
        </g>
      </g>
    </g>
  </g>
</svg>
