<svg xmlns="http://www.w3.org/2000/svg" width="70" height="48" viewBox="0 0 70 48">
  <g id="レイヤー_2" data-name="レイヤー 2">
    <g id="dinner-club">
      <g id="dinner_club" data-name="dinner club">
        <rect width="70" height="48" rx="4" fill="#0069aa"/>
        <g>
          <rect x="11" y="4.5" width="48" height="39" rx="19.305" fill="#fff"/>
          <path d="M31.562,8.245A15.813,15.813,0,1,0,47.375,24.057,15.812,15.812,0,0,0,31.562,8.245ZM20.338,24.057a10.717,10.717,0,0,1,8.25-10.639V34.7A10.717,10.717,0,0,1,20.338,24.057ZM33.588,34.7V13.418a10.717,10.717,0,0,1,8.25,10.639A10.717,10.717,0,0,1,33.588,34.7Z" fill="#0069aa"/>
        </g>
      </g>
    </g>
  </g>
</svg>
