<svg xmlns="http://www.w3.org/2000/svg" width="70" height="48" viewBox="0 0 70 48">
  <g id="レイヤー_2" data-name="レイヤー 2">
    <g id="master">
      <g id="master-2" data-name="master">
        <rect width="70" height="48" rx="4" fill="#224caa"/>
        <g>
          <path d="M35,14.1a15,15,0,1,0,0,19.8,14.94,14.94,0,0,1,0-19.8Z" fill="#ff0016"/>
          <path d="M35,14.1a14.94,14.94,0,0,0,0,19.8,14.94,14.94,0,0,0,0-19.8Z" fill="#ff0016"/>
        </g>
        <path d="M46.251,9A14.955,14.955,0,0,0,35,14.1a15.172,15.172,0,0,0-1.716,2.4h3.432a15.035,15.035,0,0,1,1.306,3H31.957a14.846,14.846,0,0,0-.628,3h7.318a14.527,14.527,0,0,1,.1,1.5c0,.507-.03,1.006-.079,1.5H31.327a14.847,14.847,0,0,0,.629,3H38.04a15.054,15.054,0,0,1-1.329,3H33.283A15.294,15.294,0,0,0,35,33.9,14.994,14.994,0,1,0,46.251,9Z" fill="#ffa916"/>
      </g>
    </g>
  </g>
</svg>
