<svg xmlns="http://www.w3.org/2000/svg" xmlns:xlink="http://www.w3.org/1999/xlink" width="70" height="48" viewBox="0 0 70 48">
  <defs>
    <linearGradient id="名称未設定グラデーション_3" data-name="名称未設定グラデーション 3" x1="-361.638" y1="235.889" x2="-354.341" y2="235.889" gradientTransform="matrix(2.049, 0, 0, -2.049, 785.351, 509.714)" gradientUnits="userSpaceOnUse">
      <stop offset="0" stop-color="#007940"/>
      <stop offset="0.228" stop-color="#00873f"/>
      <stop offset="0.743" stop-color="#40a737"/>
      <stop offset="1" stop-color="#5cb531"/>
    </linearGradient>
    <linearGradient id="名称未設定グラデーション_3-2" x1="-361.639" y1="238.26" x2="-354.34" y2="238.26" xlink:href="#名称未設定グラデーション_3"/>
  </defs>
  <g id="レイヤー_2" data-name="レイヤー 2">
    <g id="jcb">
      <rect width="70" height="48" rx="4" fill="#e5e5e5"/>
      <g id="g6323">
        <path id="path6325" d="M62.223,36.513a8.465,8.465,0,0,1-8.453,8.453H7.777V11.487A8.465,8.465,0,0,1,16.23,3.034H62.223V36.513Z" fill="#fff"/>
        <g id="g6327">
          <path id="path6338" d="M47.247,27.927h3.494c.1,0,.333-.033.433-.033a1.559,1.559,0,0,0,1.231-1.564,1.617,1.617,0,0,0-1.231-1.565,1.777,1.777,0,0,0-.433-.033H47.247v3.2Z" fill="url(#名称未設定グラデーション_3)"/>
          <path id="path6349" d="M59.194,30.622V5.863H50.342a6.057,6.057,0,0,0-6.057,6.057v6.289h8.553a3.352,3.352,0,0,1,.6.034c1.93.1,3.361,1.1,3.361,2.828a2.83,2.83,0,0,1-2.762,2.763V23.9C56,24.033,57.5,25.132,57.5,26.829c0,1.83-1.664,3.028-3.86,3.028H44.252V42.171h8.885a6.058,6.058,0,0,0,6.057-6.057V30.622" fill="#138e3b"/>
          <path id="path6360" d="M51.973,21.471a1.416,1.416,0,0,0-1.232-1.431c-.066,0-.233-.034-.333-.034H47.247v2.929h3.161a.935.935,0,0,0,.333-.033A1.417,1.417,0,0,0,51.973,21.471Z" fill="url(#名称未設定グラデーション_3-2)"/>
        </g>
        <path id="path6371" d="M16.863,5.863a6.057,6.057,0,0,0-6.057,6.057V26.862a11.977,11.977,0,0,0,5.225,1.365,2.9,2.9,0,0,0,3.228-3V18.176H24.45V25.2c0,2.729-1.7,4.959-7.454,4.959a25.533,25.533,0,0,1-6.224-.766V42.137h8.886a6.057,6.057,0,0,0,6.057-6.057V5.863Z" fill="#0f6caf"/>
        <path id="path6384" d="M33.6,5.863a6.057,6.057,0,0,0-6.057,6.057v7.92c1.531-1.3,4.194-2.13,8.487-1.93a27.035,27.035,0,0,1,4.759.732v2.563A11.512,11.512,0,0,0,36.2,19.873c-3.261-.233-5.225,1.365-5.225,4.16,0,2.829,1.964,4.426,5.225,4.16a12.091,12.091,0,0,0,4.593-1.331v2.563a26.4,26.4,0,0,1-4.759.732c-4.293.2-6.956-.633-8.487-1.93V42.2h8.886a6.058,6.058,0,0,0,6.057-6.057V5.863Z" fill="#de0a25"/>
      </g>
    </g>
  </g>
</svg>
